<svg xmlns="http://www.w3.org/2000/svg" width="29.707" height="12.707" viewBox="0 0 29.707 12.707">
  <g id="그룹_13118" data-name="그룹 13118" transform="translate(-3 14.354) rotate(-90)">
    <g id="그룹_13116" data-name="그룹 13116" transform="translate(8)">
      <path id="패스_55973" data-name="패스 55973" d="M-163.5,5918h-1v-1h1Zm0-4h-1v-1h1Zm0-4h-1v-1h1Zm0-4h-1v-1h1Zm0-4h-1v-1h1Zm0-4h-1v-1h1Zm0-4h-1v-1h1Zm0-4h-1v-1h1Z" transform="translate(164 -5886)" fill="#fff"/>
    </g>
    <path id="패스_55974" data-name="패스 55974" d="M-107,5835.707l-6.354-6.354.707-.707,5.646,5.646,5.646-5.646.707.707Z" transform="translate(115 -5803)" fill="#fff"/>
  </g>
</svg>
