<svg xmlns="http://www.w3.org/2000/svg" width="245" height="40" viewBox="0 0 245 40">
    <g data-name="레이어 1">
        <g data-name="그룹 32">
            <path data-name="패스 1" d="M21.844 24.347C21.3 19.381 26.5 15.4 33.463 15.453s13.054 4.121 13.6 9.08-4.653 8.945-11.618 8.889-13.054-4.117-13.6-9.076m26.513 1.539c-.629-6.156-7.637-11.2-15.651-11.265s-14 4.873-13.375 11.025 7.637 11.2 15.653 11.267 14.006-4.871 13.373-11.027" transform="translate(-5.388 -3.864)" style="fill:#fbb584"/>
            <path data-name="패스 2" d="M35.7 39.459c-3.947 4.131-10.286 4.47-14.153.766s-3.8-10.047.147-14.171 10.288-4.467 14.153-.766 3.8 10.05-.147 14.171M21.074 25.924c-4.59 4.792-4.663 12.169-.168 16.474s11.863 3.9 16.449-.891 4.667-12.17.17-16.474-11.861-3.9-16.451.89" transform="translate(-4.832 -6.29)" style="fill:#f89b6c"/>
            <path data-name="패스 3" d="M15.753 3.283c8.212-3.075 16.331.037 18.135 6.952s-3.388 15.023-11.6 18.1S5.957 28.3 4.154 21.381s3.389-15.017 11.6-18.1M8.126 5.928C-.392 12.672-2.56 22.448 3.281 27.755s17.486 4.146 26.007-2.6S39.977 8.642 34.133 3.331 16.645-.819 8.126 5.928" transform="translate(.908 .91)" style="fill:#f37321"/>
        </g>
        <g data-name="그룹 1">
            <path data-name="패스 4" d="M62.58 12.349V27.62h-2.392v-8.056h-9.05v8.054h-2.393V12.349h2.392v5.123h9.05v-5.123z"/>
            <path data-name="패스 5" d="M68.322 27.619a3.672 3.672 0 0 1-2.651-.937 3.161 3.161 0 0 1-1-2.412v-.817a3.184 3.184 0 0 1 1-2.433 3.623 3.623 0 0 1 2.651-.957h6.24v-.06q0-1.834-2.013-1.834h-6.938v-2.033h6.9a4.554 4.554 0 0 1 3.289 1.1 3.952 3.952 0 0 1 1.156 3.07v4.047a3.046 3.046 0 0 1-1.057 2.452 4.02 4.02 0 0 1-2.691.818zm4.366-5.522h-3.792q-1.835 0-1.835 1.555v.375q0 1.536 1.835 1.534h3.788q1.873 0 1.874-1.534v-.379q.003-1.551-1.87-1.551z"/>
            <path data-name="패스 6" d="M83.95 16.136h2.352a4.7 4.7 0 0 1 3.508 1.3 4.922 4.922 0 0 1 1.276 3.609v6.579h-2.392V21.16a3.208 3.208 0 0 0-.558-2.093 2.446 2.446 0 0 0-2.013-.857H84.09a2.46 2.46 0 0 0-1.994.857 3.388 3.388 0 0 0-.518 2.093v6.459h-2.392V21.04a4.921 4.921 0 0 1 1.274-3.613 4.675 4.675 0 0 1 3.49-1.291z"/>
            <path data-name="패스 7" d="M102.111 26.084a3.965 3.965 0 0 1-3.17 1.535h-1.475a4.136 4.136 0 0 1-3.17-1.256 4.648 4.648 0 0 1-1.121-3.329v-6.9h2.372v6.918a2.631 2.631 0 0 0 .539 1.834 2.112 2.112 0 0 0 1.614.657h1.037a2.136 2.136 0 0 0 1.635-.657 2.567 2.567 0 0 0 .558-1.834v-6.916h2.353v6.918a2.634 2.634 0 0 0 .538 1.834 2.114 2.114 0 0 0 1.615.657h1.039a2.138 2.138 0 0 0 1.635-.657 2.57 2.57 0 0 0 .558-1.834v-6.918h2.373v6.9a4.551 4.551 0 0 1-1.156 3.329 4.16 4.16 0 0 1-3.19 1.256h-1.455a3.926 3.926 0 0 1-3.129-1.537z"/>
            <path data-name="패스 8" d="M118.059 18.21a2.459 2.459 0 0 0-1.994.857 3.387 3.387 0 0 0-.519 2.093v6.459h-2.392v-15.31h2.392v4.526a4.148 4.148 0 0 1 2.373-.7h2.352a4.7 4.7 0 0 1 3.509 1.3 4.921 4.921 0 0 1 1.276 3.609v6.579h-2.392V21.16a3.2 3.2 0 0 0-.559-2.093 2.446 2.446 0 0 0-2.013-.857z"/>
            <path data-name="패스 9" d="M130.679 27.619a3.673 3.673 0 0 1-2.652-.937 3.163 3.163 0 0 1-1-2.412v-.817a3.186 3.186 0 0 1 1-2.433 3.625 3.625 0 0 1 2.652-.957h6.239v-.06q0-1.834-2.013-1.834h-6.94v-2.033h6.9a4.554 4.554 0 0 1 3.289 1.1 3.952 3.952 0 0 1 1.156 3.07v4.047a3.048 3.048 0 0 1-1.056 2.452 4.023 4.023 0 0 1-2.692.818zm4.366-5.522h-3.788q-1.835 0-1.834 1.555v.375q0 1.536 1.834 1.534h3.788q1.873 0 1.874-1.534v-.379q-.001-1.551-1.874-1.551z"/>
            <path data-name="패스 10" d="M147.424 27.62V12.349h8.134a5.431 5.431 0 0 1 5.921 5.722v3.867a5.724 5.724 0 0 1-1.614 4.166 5.784 5.784 0 0 1-4.306 1.515zm2.392-13.2v11.126h5.682a3.427 3.427 0 0 0 2.691-1.116 3.8 3.8 0 0 0 .9-2.612V18.17a3.882 3.882 0 0 0-.878-2.631 3.488 3.488 0 0 0-2.711-1.116z"/>
            <path data-name="패스 11" d="M175.951 19.527v.8a3.131 3.131 0 0 1-1.017 2.412 3.666 3.666 0 0 1-2.652.937h-6.22v.079q0 1.814 2.014 1.814h7.336v2.054h-7.311a4.649 4.649 0 0 1-3.289-1.076 3.961 3.961 0 0 1-1.136-3.051v-3.969a3.185 3.185 0 0 1 1-2.432 3.652 3.652 0 0 1 2.671-.957h4.925a3.653 3.653 0 0 1 2.671.957 3.157 3.157 0 0 1 1.008 2.432zm-8.05 2.111h3.8q1.854 0 1.853-1.536v-.375q0-1.556-1.853-1.556h-3.8q-1.835 0-1.834 1.556v.378q-.004 1.533 1.834 1.533z"/>
            <path data-name="패스 12" d="M180.396 16.236h4.366v2.053h-4.366v9.33h-2.412V16.037a3.418 3.418 0 0 1 1.177-2.691 4.929 4.929 0 0 1 3.369-1h2.232v2.074h-2.093q-2.213.003-2.273 1.816z"/>
            <path data-name="패스 13" d="M198.877 19.527v.8a3.131 3.131 0 0 1-1.017 2.412 3.665 3.665 0 0 1-2.651.937h-6.222v.079q0 1.814 2.013 1.814h7.337v2.054h-7.317a4.652 4.652 0 0 1-3.29-1.076 3.961 3.961 0 0 1-1.136-3.051v-3.969a3.185 3.185 0 0 1 1-2.432 3.654 3.654 0 0 1 2.672-.957h4.921a3.651 3.651 0 0 1 2.671.957 3.157 3.157 0 0 1 1.019 2.432zm-8.054 2.113h3.809q1.854 0 1.853-1.536v-.377q0-1.556-1.853-1.556h-3.809q-1.834 0-1.833 1.556v.378q-.003 1.533 1.832 1.533z"/>
            <path data-name="패스 14" d="M205.714 16.136h2.352a4.7 4.7 0 0 1 3.509 1.3 4.924 4.924 0 0 1 1.276 3.609v6.579h-2.392V21.16a3.208 3.208 0 0 0-.559-2.093 2.445 2.445 0 0 0-2.013-.857h-2.033a2.458 2.458 0 0 0-1.994.857 3.383 3.383 0 0 0-.519 2.093v6.459h-2.392V21.04a4.919 4.919 0 0 1 1.279-3.613 4.673 4.673 0 0 1 3.486-1.291z"/>
            <path data-name="패스 15" d="M222.719 20.861a5.212 5.212 0 0 1 2.831.6 2.649 2.649 0 0 1 1.135 2.372v.857a2.629 2.629 0 0 1-1.135 2.353 5.425 5.425 0 0 1-2.852.578h-7.614v-2.076h7.618q1.575 0 1.575-1.077v-.458q0-1.1-1.575-1.1h-3.95a5.31 5.31 0 0 1-2.811-.579 2.644 2.644 0 0 1-1.116-2.352v-.872a2.635 2.635 0 0 1 1.116-2.373 5.169 5.169 0 0 1 2.811-.6h7.3v2.074h-7.26q-1.555 0-1.555 1.1v.479q0 1.077 1.534 1.076z"/>
            <path data-name="패스 16" d="M240.939 19.527v.8a3.133 3.133 0 0 1-1.016 2.412 3.667 3.667 0 0 1-2.651.937h-6.22v.079q0 1.814 2.014 1.814h7.336v2.054h-7.318a4.648 4.648 0 0 1-3.289-1.076 3.961 3.961 0 0 1-1.136-3.051v-3.969a3.187 3.187 0 0 1 1-2.432 3.654 3.654 0 0 1 2.672-.957h4.924a3.654 3.654 0 0 1 2.672.957 3.158 3.158 0 0 1 1.012 2.432zm-8.054 2.113h3.809q1.854 0 1.853-1.536v-.377q0-1.556-1.853-1.556h-3.81q-1.834 0-1.833 1.556v.378q0 1.533 1.833 1.533z"/>
        </g>
    </g>
</svg>
