<svg xmlns="http://www.w3.org/2000/svg" width="18" height="18" viewBox="0 0 18 18">
    <g data-name="Icon feather-download">
        <path data-name="패스 56180" d="M16.594 27.844h-10.5A2.346 2.346 0 0 1 3.75 25.5v-3h1.688v3a.657.657 0 0 0 .656.656h10.5a.657.657 0 0 0 .656-.656v-3h1.688v3a2.346 2.346 0 0 1-2.344 2.344z" transform="translate(-2.344 -11.812)" style="fill:#666"/>
        <path data-name="패스 56181" d="M14.316 19.66a.841.841 0 0 1-.6-.247l-3.75-3.75 1.193-1.193 3.153 3.153 3.158-3.153 1.193 1.193-3.75 3.75a.841.841 0 0 1-.597.247z" transform="translate(-5.317 -8.128)" style="fill:#666"/>
        <path data-name="패스 56182" d="M18.938 13.5H17.25v-9h1.688z" transform="translate(-9.094 -2.812)" style="fill:#666"/>
    </g>
</svg>
